<?xml version="1.0" encoding="utf-8"?>
<!-- Generator: Adobe Illustrator 24.2.1, SVG Export Plug-In . SVG Version: 6.00 Build 0)  -->
<svg version="1.1" id="Layer_1" xmlns="http://www.w3.org/2000/svg" xmlns:xlink="http://www.w3.org/1999/xlink" x="0px" y="0px"
	 viewBox="0 0 1280 1280" style="enable-background:new 0 0 1280 1280;" xml:space="preserve">
<style type="text/css">
	.st0{fill:#FFCD00;}
</style>
<g transform="translate(0.000000,1280.000000) scale(0.100000,-0.100000)">
	<path class="st0" d="M550,12465c-105-35-200-141-222-248c-43-206,163-412,369-369c155,32,275,190,260,339c-11,105-90,213-190,262
		C706,12478,612,12485,550,12465z"/>
	<path class="st0" d="M1830,12465c-151-50-253-216-222-362c25-119,136-230,254-255c194-41,395,142,375,339c-11,105-90,213-190,262
		C1986,12478,1892,12485,1830,12465z"/>
	<path class="st0" d="M3110,12465c-105-35-200-141-222-248c-43-206,163-412,369-369c155,32,275,190,260,339c-11,105-90,213-190,262
		C3266,12478,3172,12485,3110,12465z"/>
	<path class="st0" d="M4390,12465c-105-35-200-141-222-248c-43-206,163-412,369-369c155,32,275,190,260,339c-11,105-90,213-190,262
		C4546,12478,4452,12485,4390,12465z"/>
	<path class="st0" d="M5670,12465c-105-35-200-141-222-248c-43-206,163-412,369-369c155,32,275,190,260,339c-11,105-90,213-190,262
		C5826,12478,5732,12485,5670,12465z"/>
	<path class="st0" d="M6950,12465c-105-35-200-141-222-248c-43-206,163-412,369-369c155,32,275,190,260,339c-11,105-90,213-190,262
		C7106,12478,7012,12485,6950,12465z"/>
	<path class="st0" d="M8230,12465c-105-35-200-141-222-248c-43-206,163-412,369-369c155,32,275,190,260,339c-11,105-90,213-190,262
		C8386,12478,8292,12485,8230,12465z"/>
	<path class="st0" d="M9510,12465c-105-35-200-141-222-248c-43-206,163-412,369-369c155,32,275,190,260,339c-11,105-90,213-190,262
		C9666,12478,9572,12485,9510,12465z"/>
	<path class="st0" d="M10790,12465c-105-35-200-141-222-248c-25-117,32-244,142-319c107-74,229-75,337-3c177,118,201,338,53,485
		C11015,12466,10893,12499,10790,12465z"/>
	<path class="st0" d="M12070,12465c-105-35-200-141-222-248c-25-117,32-244,142-319c107-74,229-75,337-3c177,118,201,338,53,485
		C12295,12466,12173,12499,12070,12465z"/>
	<path class="st0" d="M550,11185c-105-35-200-141-222-248c-43-206,163-412,369-369c155,32,275,190,260,339c-11,105-90,213-190,262
		C706,11198,612,11205,550,11185z"/>
	<path class="st0" d="M1830,11185c-151-50-253-216-222-362c25-119,136-230,254-255c194-41,395,142,375,339c-11,105-90,213-190,262
		C1986,11198,1892,11205,1830,11185z"/>
	<path class="st0" d="M3110,11185c-105-35-200-141-222-248c-43-206,163-412,369-369c155,32,275,190,260,339c-11,105-90,213-190,262
		C3266,11198,3172,11205,3110,11185z"/>
	<path class="st0" d="M4390,11185c-105-35-200-141-222-248c-43-206,163-412,369-369c155,32,275,190,260,339c-11,105-90,213-190,262
		C4546,11198,4452,11205,4390,11185z"/>
	<path class="st0" d="M5670,11185c-105-35-200-141-222-248c-43-206,163-412,369-369c155,32,275,190,260,339c-11,105-90,213-190,262
		C5826,11198,5732,11205,5670,11185z"/>
	<path class="st0" d="M6950,11185c-105-35-200-141-222-248c-43-206,163-412,369-369c155,32,275,190,260,339c-11,105-90,213-190,262
		C7106,11198,7012,11205,6950,11185z"/>
	<path class="st0" d="M8230,11185c-105-35-200-141-222-248c-43-206,163-412,369-369c155,32,275,190,260,339c-11,105-90,213-190,262
		C8386,11198,8292,11205,8230,11185z"/>
	<path class="st0" d="M9510,11185c-105-35-200-141-222-248c-43-206,163-412,369-369c155,32,275,190,260,339c-11,105-90,213-190,262
		C9666,11198,9572,11205,9510,11185z"/>
	<path class="st0" d="M10790,11185c-105-35-200-141-222-248c-25-117,32-244,142-319c107-74,229-75,337-3c177,118,201,338,53,485
		C11015,11186,10893,11219,10790,11185z"/>
	<path class="st0" d="M12070,11185c-105-35-200-141-222-248c-25-117,32-244,142-319c107-74,229-75,337-3c177,118,201,338,53,485
		C12295,11186,12173,11219,12070,11185z"/>
	<path class="st0" d="M550,9905c-105-35-200-141-222-248c-43-206,163-412,369-369c155,32,275,190,260,339c-11,105-90,213-190,262
		C706,9918,612,9925,550,9905z"/>
	<path class="st0" d="M1830,9905c-105-35-200-141-222-248c-43-206,163-412,369-369c155,32,275,190,260,339c-11,105-90,213-190,262
		C1986,9918,1892,9925,1830,9905z"/>
	<path class="st0" d="M3110,9905c-105-35-200-141-222-248c-43-206,163-412,369-369c155,32,275,190,260,339c-11,105-90,213-190,262
		C3266,9918,3172,9925,3110,9905z"/>
	<path class="st0" d="M4390,9905c-105-35-200-141-222-248c-43-206,163-412,369-369c155,32,275,190,260,339c-11,105-90,213-190,262
		C4546,9918,4452,9925,4390,9905z"/>
	<path class="st0" d="M5670,9905c-105-35-200-141-222-248c-43-206,163-412,369-369c155,32,275,190,260,339c-11,105-90,213-190,262
		C5826,9918,5732,9925,5670,9905z"/>
	<path class="st0" d="M6950,9905c-105-35-200-141-222-248c-43-206,163-412,369-369c155,32,275,190,260,339c-11,105-90,213-190,262
		C7106,9918,7012,9925,6950,9905z"/>
	<path class="st0" d="M8230,9905c-105-35-200-141-222-248c-43-206,163-412,369-369c155,32,275,190,260,339c-11,105-90,213-190,262
		C8386,9918,8292,9925,8230,9905z"/>
	<path class="st0" d="M9510,9905c-105-35-200-141-222-248c-43-206,163-412,369-369c155,32,275,190,260,339c-11,105-90,213-190,262
		C9666,9918,9572,9925,9510,9905z"/>
	<path class="st0" d="M10790,9905c-105-35-200-141-222-248c-43-206,163-412,369-369c155,32,275,190,260,339c-11,105-90,213-190,262
		C10946,9918,10852,9925,10790,9905z"/>
	<path class="st0" d="M12070,9905c-105-35-200-141-222-248c-43-206,163-412,369-369c155,32,275,190,260,339c-11,105-90,213-190,262
		C12226,9918,12132,9925,12070,9905z"/>
	<path class="st0" d="M550,8625c-105-35-200-141-222-248c-43-206,163-412,369-369c155,32,275,190,260,339c-11,105-90,213-190,262
		C706,8638,612,8645,550,8625z"/>
	<path class="st0" d="M1830,8625c-105-35-200-141-222-248c-43-206,163-412,369-369c155,32,275,190,260,339c-11,105-90,213-190,262
		C1986,8638,1892,8645,1830,8625z"/>
	<path class="st0" d="M3110,8625c-105-35-200-141-222-248c-43-206,163-412,369-369c155,32,275,190,260,339c-11,105-90,213-190,262
		C3266,8638,3172,8645,3110,8625z"/>
	<path class="st0" d="M4390,8625c-105-35-200-141-222-248c-43-206,163-412,369-369c155,32,275,190,260,339c-11,105-90,213-190,262
		C4546,8638,4452,8645,4390,8625z"/>
	<path class="st0" d="M5670,8625c-105-35-200-141-222-248c-43-206,163-412,369-369c155,32,275,190,260,339c-11,105-90,213-190,262
		C5826,8638,5732,8645,5670,8625z"/>
	<path class="st0" d="M6950,8625c-105-35-200-141-222-248c-43-206,163-412,369-369c155,32,275,190,260,339c-11,105-90,213-190,262
		C7106,8638,7012,8645,6950,8625z"/>
	<path class="st0" d="M8230,8625c-105-35-200-141-222-248c-43-206,163-412,369-369c155,32,275,190,260,339c-11,105-90,213-190,262
		C8386,8638,8292,8645,8230,8625z"/>
	<path class="st0" d="M9510,8625c-105-35-200-141-222-248c-43-206,163-412,369-369c155,32,275,190,260,339c-11,105-90,213-190,262
		C9666,8638,9572,8645,9510,8625z"/>
	<path class="st0" d="M10790,8625c-105-35-200-141-222-248c-43-206,163-412,369-369c155,32,275,190,260,339c-11,105-90,213-190,262
		C10946,8638,10852,8645,10790,8625z"/>
	<path class="st0" d="M12070,8625c-105-35-200-141-222-248c-43-206,163-412,369-369c155,32,275,190,260,339c-11,105-90,213-190,262
		C12226,8638,12132,8645,12070,8625z"/>
	<path class="st0" d="M550,7345c-105-35-200-141-222-248c-43-206,163-412,369-369c155,32,275,190,260,339c-11,105-90,213-190,262
		C706,7358,612,7365,550,7345z"/>
	<path class="st0" d="M1830,7345c-105-35-200-141-222-248c-43-206,163-412,369-369c155,32,275,190,260,339c-11,105-90,213-190,262
		C1986,7358,1892,7365,1830,7345z"/>
	<path class="st0" d="M3110,7345c-105-35-200-141-222-248c-43-206,163-412,369-369c155,32,275,190,260,339c-11,105-90,213-190,262
		C3266,7358,3172,7365,3110,7345z"/>
	<path class="st0" d="M4390,7345c-105-35-200-141-222-248c-43-206,163-412,369-369c155,32,275,190,260,339c-11,105-90,213-190,262
		C4546,7358,4452,7365,4390,7345z"/>
	<path class="st0" d="M5670,7345c-105-35-200-141-222-248c-43-206,163-412,369-369c155,32,275,190,260,339c-11,105-90,213-190,262
		C5826,7358,5732,7365,5670,7345z"/>
	<path class="st0" d="M6950,7345c-105-35-200-141-222-248c-43-206,163-412,369-369c155,32,275,190,260,339c-11,105-90,213-190,262
		C7106,7358,7012,7365,6950,7345z"/>
	<path class="st0" d="M8230,7345c-105-35-200-141-222-248c-43-206,163-412,369-369c155,32,275,190,260,339c-11,105-90,213-190,262
		C8386,7358,8292,7365,8230,7345z"/>
	<path class="st0" d="M9510,7345c-105-35-200-141-222-248c-43-206,163-412,369-369c155,32,275,190,260,339c-11,105-90,213-190,262
		C9666,7358,9572,7365,9510,7345z"/>
	<path class="st0" d="M10790,7345c-105-35-200-141-222-248c-43-206,163-412,369-369c155,32,275,190,260,339c-11,105-90,213-190,262
		C10946,7358,10852,7365,10790,7345z"/>
	<path class="st0" d="M12070,7345c-105-35-200-141-222-248c-43-206,163-412,369-369c155,32,275,190,260,339c-11,105-90,213-190,262
		C12226,7358,12132,7365,12070,7345z"/>
	<path class="st0" d="M550,6065c-105-35-200-141-222-248c-43-206,163-412,369-369c155,32,275,190,260,339c-11,105-90,213-190,262
		C706,6078,612,6085,550,6065z"/>
	<path class="st0" d="M1830,6065c-105-35-200-141-222-248c-43-206,163-412,369-369c155,32,275,190,260,339c-11,105-90,213-190,262
		C1986,6078,1892,6085,1830,6065z"/>
	<path class="st0" d="M3110,6065c-105-35-200-141-222-248c-43-206,163-412,369-369c155,32,275,190,260,339c-11,105-90,213-190,262
		C3266,6078,3172,6085,3110,6065z"/>
	<path class="st0" d="M4390,6065c-105-35-200-141-222-248c-43-206,163-412,369-369c155,32,275,190,260,339c-11,105-90,213-190,262
		C4546,6078,4452,6085,4390,6065z"/>
	<path class="st0" d="M5670,6065c-105-35-200-141-222-248c-43-206,163-412,369-369c155,32,275,190,260,339c-11,105-90,213-190,262
		C5826,6078,5732,6085,5670,6065z"/>
	<path class="st0" d="M6950,6065c-105-35-200-141-222-248c-43-206,163-412,369-369c155,32,275,190,260,339c-11,105-90,213-190,262
		C7106,6078,7012,6085,6950,6065z"/>
	<path class="st0" d="M8230,6065c-105-35-200-141-222-248c-43-206,163-412,369-369c155,32,275,190,260,339c-11,105-90,213-190,262
		C8386,6078,8292,6085,8230,6065z"/>
	<path class="st0" d="M9510,6065c-105-35-200-141-222-248c-43-206,163-412,369-369c155,32,275,190,260,339c-11,105-90,213-190,262
		C9666,6078,9572,6085,9510,6065z"/>
	<path class="st0" d="M10790,6065c-105-35-200-141-222-248c-43-206,163-412,369-369c155,32,275,190,260,339c-11,105-90,213-190,262
		C10946,6078,10852,6085,10790,6065z"/>
	<path class="st0" d="M12070,6065c-105-35-200-141-222-248c-43-206,163-412,369-369c155,32,275,190,260,339c-11,105-90,213-190,262
		C12226,6078,12132,6085,12070,6065z"/>
	<path class="st0" d="M550,4785c-105-35-200-141-222-248c-43-206,163-412,369-369c155,32,275,190,260,339c-11,105-90,213-190,262
		C706,4798,612,4805,550,4785z"/>
	<path class="st0" d="M1830,4785c-105-35-200-141-222-248c-43-206,163-412,369-369c155,32,275,190,260,339c-11,105-90,213-190,262
		C1986,4798,1892,4805,1830,4785z"/>
	<path class="st0" d="M3110,4785c-105-35-200-141-222-248c-25-117,32-244,142-319c107-74,229-75,337-3c177,118,201,338,53,485
		C3335,4786,3213,4819,3110,4785z"/>
	<path class="st0" d="M4390,4785c-105-35-200-141-222-248c-25-117,32-244,142-319c107-74,229-75,337-3c177,118,201,338,53,485
		C4615,4786,4493,4819,4390,4785z"/>
	<path class="st0" d="M5670,4785c-151-50-253-216-222-362c25-119,136-230,255-255c193-41,394,142,374,339c-11,105-90,213-190,262
		C5826,4798,5732,4805,5670,4785z"/>
	<path class="st0" d="M6950,4785c-151-50-253-216-222-362c25-119,136-230,255-255c193-41,394,142,374,339c-11,105-90,213-190,262
		C7106,4798,7012,4805,6950,4785z"/>
	<path class="st0" d="M8230,4785c-151-50-253-216-222-362c25-119,136-230,255-255c193-41,394,142,374,339c-11,105-90,213-190,262
		C8386,4798,8292,4805,8230,4785z"/>
	<path class="st0" d="M9510,4785c-151-50-253-216-222-362c25-119,136-230,255-255c193-41,394,142,374,339c-11,105-90,213-190,262
		C9666,4798,9572,4805,9510,4785z"/>
	<path class="st0" d="M10790,4785c-105-35-200-141-222-248c-43-206,163-412,369-369c155,32,275,190,260,339c-11,105-90,213-190,262
		C10946,4798,10852,4805,10790,4785z"/>
	<path class="st0" d="M12070,4785c-105-35-200-141-222-248c-43-206,163-412,369-369c155,32,275,190,260,339c-11,105-90,213-190,262
		C12226,4798,12132,4805,12070,4785z"/>
	<path class="st0" d="M550,3505c-105-35-200-141-222-248c-43-206,163-412,369-369c155,32,275,190,260,339c-11,105-90,213-190,262
		C706,3518,612,3525,550,3505z"/>
	<path class="st0" d="M1830,3505c-105-35-200-141-222-248c-43-206,163-412,369-369c155,32,275,190,260,339c-11,105-90,213-190,262
		C1986,3518,1892,3525,1830,3505z"/>
	<path class="st0" d="M3110,3505c-105-35-200-141-222-248c-25-117,32-244,142-319c107-74,229-75,337-3c177,118,201,338,53,485
		C3335,3506,3213,3539,3110,3505z"/>
	<path class="st0" d="M4390,3505c-105-35-200-141-222-248c-25-117,32-244,142-319c107-74,229-75,337-3c177,118,201,338,53,485
		C4615,3506,4493,3539,4390,3505z"/>
	<path class="st0" d="M5670,3505c-151-50-253-216-222-362c25-119,136-230,255-255c193-41,394,142,374,339c-11,105-90,213-190,262
		C5826,3518,5732,3525,5670,3505z"/>
	<path class="st0" d="M6950,3505c-151-50-253-216-222-362c25-119,136-230,255-255c193-41,394,142,374,339c-11,105-90,213-190,262
		C7106,3518,7012,3525,6950,3505z"/>
	<path class="st0" d="M8230,3505c-151-50-253-216-222-362c25-119,136-230,255-255c193-41,394,142,374,339c-11,105-90,213-190,262
		C8386,3518,8292,3525,8230,3505z"/>
	<path class="st0" d="M9510,3505c-151-50-253-216-222-362c25-119,136-230,255-255c193-41,394,142,374,339c-11,105-90,213-190,262
		C9666,3518,9572,3525,9510,3505z"/>
	<path class="st0" d="M10790,3505c-105-35-200-141-222-248c-43-206,163-412,369-369c155,32,275,190,260,339c-11,105-90,213-190,262
		C10946,3518,10852,3525,10790,3505z"/>
	<path class="st0" d="M12070,3505c-105-35-200-141-222-248c-43-206,163-412,369-369c155,32,275,190,260,339c-11,105-90,213-190,262
		C12226,3518,12132,3525,12070,3505z"/>
	<path class="st0" d="M550,2225c-105-35-200-141-222-248c-43-206,163-412,369-369c155,32,275,190,260,339c-11,105-90,213-190,262
		C706,2238,612,2245,550,2225z"/>
	<path class="st0" d="M1830,2225c-105-35-200-141-222-248c-43-206,163-412,369-369c155,32,275,190,260,339c-11,105-90,213-190,262
		C1986,2238,1892,2245,1830,2225z"/>
	<path class="st0" d="M3110,2225c-105-35-200-141-222-248c-25-117,32-244,142-319c107-74,229-75,337-3c177,118,201,338,53,485
		C3335,2226,3213,2259,3110,2225z"/>
	<path class="st0" d="M4390,2225c-105-35-200-141-222-248c-25-117,32-244,142-319c107-74,229-75,337-3c177,118,201,338,53,485
		C4615,2226,4493,2259,4390,2225z"/>
	<path class="st0" d="M5670,2225c-105-35-200-141-222-248c-43-206,163-412,369-369c155,32,275,190,260,339c-11,105-90,213-190,262
		C5826,2238,5732,2245,5670,2225z"/>
	<path class="st0" d="M6950,2225c-105-35-200-141-222-248c-43-206,163-412,369-369c155,32,275,190,260,339c-11,105-90,213-190,262
		C7106,2238,7012,2245,6950,2225z"/>
	<path class="st0" d="M8230,2225c-105-35-200-141-222-248c-43-206,163-412,369-369c155,32,275,190,260,339c-11,105-90,213-190,262
		C8386,2238,8292,2245,8230,2225z"/>
	<path class="st0" d="M9510,2225c-105-35-200-141-222-248c-43-206,163-412,369-369c155,32,275,190,260,339c-11,105-90,213-190,262
		C9666,2238,9572,2245,9510,2225z"/>
	<path class="st0" d="M10790,2225c-105-35-200-141-222-248c-43-206,163-412,369-369c155,32,275,190,260,339c-11,105-90,213-190,262
		C10946,2238,10852,2245,10790,2225z"/>
	<path class="st0" d="M12070,2225c-105-35-200-141-222-248c-43-206,163-412,369-369c155,32,275,190,260,339c-11,105-90,213-190,262
		C12226,2238,12132,2245,12070,2225z"/>
	<path class="st0" d="M550,945c-105-35-200-141-222-248c-43-206,163-412,369-369c155,32,275,190,260,339c-11,105-90,213-190,262
		C706,958,612,965,550,945z"/>
	<path class="st0" d="M1830,945c-105-35-200-141-222-248c-43-206,163-412,369-369c155,32,275,190,260,339c-11,105-90,213-190,262
		C1986,958,1892,965,1830,945z"/>
	<path class="st0" d="M3110,945c-105-35-200-141-222-248c-43-206,163-412,369-369c155,32,275,190,260,339c-11,105-90,213-190,262
		C3266,958,3172,965,3110,945z"/>
	<path class="st0" d="M4390,945c-105-35-200-141-222-248c-43-206,163-412,369-369c155,32,275,190,260,339c-11,105-90,213-190,262
		C4546,958,4452,965,4390,945z"/>
	<path class="st0" d="M5670,945c-105-35-200-141-222-248c-43-206,163-412,369-369c155,32,275,190,260,339c-11,105-90,213-190,262
		C5826,958,5732,965,5670,945z"/>
	<path class="st0" d="M6950,945c-105-35-200-141-222-248c-43-206,163-412,369-369c155,32,275,190,260,339c-11,105-90,213-190,262
		C7106,958,7012,965,6950,945z"/>
	<path class="st0" d="M8230,945c-105-35-200-141-222-248c-43-206,163-412,369-369c155,32,275,190,260,339c-11,105-90,213-190,262
		C8386,958,8292,965,8230,945z"/>
	<path class="st0" d="M9510,945c-105-35-200-141-222-248c-43-206,163-412,369-369c155,32,275,190,260,339c-11,105-90,213-190,262
		C9666,958,9572,965,9510,945z"/>
	<path class="st0" d="M10790,945c-105-35-200-141-222-248c-43-206,163-412,369-369c155,32,275,190,260,339c-11,105-90,213-190,262
		C10946,958,10852,965,10790,945z"/>
	<path class="st0" d="M12070,945c-105-35-200-141-222-248c-43-206,163-412,369-369c155,32,275,190,260,339c-11,105-90,213-190,262
		C12226,958,12132,965,12070,945z"/>
</g>
</svg>
